<svg xmlns="http://www.w3.org/2000/svg" width="35" height="35" viewBox="0 0 35 35">
  <g id="Group_22" data-name="Group 22" transform="translate(-1060 -745)">
    <circle id="Ellipse_13" data-name="Ellipse 13" cx="17.5" cy="17.5" r="17.5" transform="translate(1060 745)" fill="#333"/>
    <g id="_7564186_tiktok_logo_brand_icon" data-name="7564186_tiktok_logo_brand_icon" transform="translate(400 382)">
      <path id="Path_46" data-name="Path 46" d="M1719.253,2199.419a1.334,1.334,0,1,0,0-2.669h-.2a1.334,1.334,0,1,1,0,2.669Z" transform="translate(-1038.805 -1808.909)" fill="#ee1d51" fill-rule="evenodd"/>
      <path id="Path_47" data-name="Path 47" d="M1560.218,2196.75h-.2a1.334,1.334,0,1,0,0,2.669h.2a1.334,1.334,0,1,1,0-2.669Z" transform="translate(-879.991 -1808.909)" fill="#66c8cf" fill-rule="evenodd"/>
      <path id="Path_48" data-name="Path 48" d="M670,2135v.676h.792v2.577h.793v-2.559h.645l.221-.695Zm6.486,0v.676h.792v2.577h.793v-2.559h.645l.221-.695Zm-3.888.384a.387.387,0,1,1,.387.384A.385.385,0,0,1,672.6,2135.384Zm0,.658h.774v2.211H672.6ZM673.7,2135v3.253h.774v-.841l.24-.219.755,1.079h.829l-1.087-1.572.977-.95h-.94l-.774.768V2135Zm8.348,0v3.253h.774v-.841l.24-.219.756,1.079h.829l-1.087-1.572.977-.95h-.94l-.774.768V2135Z" transform="translate(0 -1747.762)" fill="#fff" fill-rule="evenodd"/>
      <path id="Path_49" data-name="Path 49" d="M906.967,443.114a6.5,6.5,0,0,0,3.793,1.213v-2.72a3.832,3.832,0,0,1-.8-.083v2.141a6.5,6.5,0,0,1-3.792-1.213V448a5.032,5.032,0,0,1-7.831,4.177,5.031,5.031,0,0,0,8.627-3.515v-5.551Zm.983-2.744a3.79,3.79,0,0,1-.983-2.22v-.35h-.755a3.808,3.808,0,0,0,1.737,2.569Zm-7.853,9.679a2.3,2.3,0,0,1,2.53-3.584v-2.781a5.082,5.082,0,0,0-.8-.046V445.8a2.3,2.3,0,0,0-1.734,4.246Z" transform="translate(-226.11 -67.138)" fill="#ee1d52" fill-rule="evenodd"/>
      <path id="Path_50" data-name="Path 50" d="M760.8,442.451a6.5,6.5,0,0,0,3.793,1.213v-2.141a6,6,0,0,1-3.751-3.723h-1.982v10.864a3.254,3.254,0,1,1-2.4-2.862v-2.164A4.709,4.709,0,1,0,760.8,448Z" transform="translate(-80.743 -67.138)" fill="#fff" fill-rule="evenodd"/>
      <path id="Path_51" data-name="Path 51" d="M683.853,374.385v-.579a3.793,3.793,0,0,1-2.014-.575A3.8,3.8,0,0,0,683.853,374.385Zm-3.751-3.723q-.027-.155-.042-.312V370h-2.737v10.864a2.3,2.3,0,0,1-3.336,2.047,2.3,2.3,0,0,0,4.133-1.384V370.662Zm-4.382,5.838v-.616A5.036,5.036,0,0,0,670,380.864a5.022,5.022,0,0,0,2.23,4.177,5.027,5.027,0,0,1,3.491-8.542Z" fill="#69c9d0" fill-rule="evenodd"/>
      <path id="Path_52" data-name="Path 52" d="M1580.784,2199.419a1.334,1.334,0,1,0,0-2.669h-.018a1.334,1.334,0,1,0,0,2.669Zm-.663-1.334a.654.654,0,1,1,.654.649A.652.652,0,0,1,1580.12,2198.084Z" transform="translate(-900.538 -1808.909)" fill="#fff" fill-rule="evenodd"/>
    </g>
  </g>
</svg>
