<svg xmlns="http://www.w3.org/2000/svg" width="35" height="35" viewBox="0 0 35 35">
  <g id="Group_23" data-name="Group 23" transform="translate(-1105 -745)">
    <circle id="Ellipse_15" data-name="Ellipse 15" cx="17.5" cy="17.5" r="17.5" transform="translate(1105 745)" fill="#333"/>
    <path id="_5305164_play_video_youtube_youtube_logo_icon" data-name="5305164_play_video_youtube_youtube logo_icon" d="M18.744,78.893A2.4,2.4,0,0,0,17.051,77.2a57.206,57.206,0,0,0-7.479-.4,57.207,57.207,0,0,0-7.479.4A2.4,2.4,0,0,0,.4,78.893a26.742,26.742,0,0,0,0,9.215A2.4,2.4,0,0,0,2.092,89.8a57.226,57.226,0,0,0,7.479.4,57.226,57.226,0,0,0,7.479-.4,2.4,2.4,0,0,0,1.692-1.693,24.917,24.917,0,0,0,.4-4.608,24.92,24.92,0,0,0-.4-4.608ZM7.657,86.372V80.629L12.631,83.5,7.657,86.372Z" transform="translate(1113 679.2)" fill="#fff"/>
  </g>
</svg>
